<?xml version="1.0" encoding="UTF-8"?>
<svg xmlns="http://www.w3.org/2000/svg" xmlns:xlink="http://www.w3.org/1999/xlink" width="32px" height="32px" viewBox="0 0 32 32" version="1.1">
<g id="surface1">
<path style=" stroke:none;fill-rule:nonzero;fill:rgb(98.431373%,40.000001%,14.901961%);fill-opacity:1;" d="M 14.085938 2.601562 C 14.5 2.578125 15.007812 2.585938 15.421875 2.605469 C 15.875 2.625 16.304688 2.828125 16.589844 3.183594 C 17.003906 3.703125 16.878906 4.308594 16.765625 4.902344 C 16.757812 4.941406 16.769531 4.964844 16.796875 4.988281 C 16.925781 4.984375 17.28125 4.867188 17.496094 4.84375 C 18.453125 4.75 19.480469 4.84375 20.316406 5.351562 C 20.40625 5.40625 20.601562 5.574219 20.691406 5.648438 C 21.480469 5.03125 22.195312 4.832031 23.1875 4.828125 C 23.921875 4.800781 24.691406 4.941406 25.320312 5.339844 C 25.554688 5.484375 25.953125 5.898438 26.070312 6.144531 C 26.394531 6.808594 26.652344 7.671875 26.277344 8.371094 C 26.226562 8.460938 26.152344 8.550781 26.09375 8.640625 C 26.429688 9.261719 26.195312 10.070312 25.851562 10.628906 C 25.769531 10.765625 25.667969 10.898438 25.582031 11.03125 C 25.796875 11.03125 26.007812 11.03125 26.222656 11.03125 C 26.765625 11.027344 27.132812 11.0625 27.53125 11.457031 C 27.992188 11.914062 27.996094 12.566406 27.863281 13.15625 C 27.824219 13.332031 27.8125 13.65625 27.757812 13.808594 C 27.621094 14.191406 27.652344 14.511719 27.609375 14.90625 C 27.570312 15.273438 27.5 15.632812 27.449219 16 L 27.210938 17.765625 C 27.09375 18.640625 27.1875 19.117188 26.535156 19.773438 C 27.054688 20.121094 27.402344 20.421875 27.667969 21.007812 C 27.921875 21.578125 27.945312 22.113281 27.914062 22.726562 C 27.910156 22.828125 27.863281 23.015625 27.871094 23.105469 C 27.894531 23.421875 27.828125 23.71875 27.8125 24.023438 C 27.800781 24.296875 27.792969 24.570312 27.789062 24.847656 C 27.789062 24.996094 27.792969 25.199219 27.78125 25.34375 C 27.765625 25.488281 27.730469 25.628906 27.679688 25.765625 C 27.535156 26.136719 27.273438 26.449219 26.902344 26.609375 C 26.78125 26.660156 26.652344 26.695312 26.519531 26.714844 C 26.21875 26.761719 25.199219 26.78125 24.941406 26.675781 C 24.789062 26.707031 24.632812 26.75 24.476562 26.777344 C 23.996094 26.871094 23.628906 26.839844 23.15625 26.757812 C 23.144531 27.277344 23 27.738281 22.597656 28.089844 C 22.144531 28.480469 21.652344 28.453125 21.097656 28.449219 L 19.953125 28.449219 L 18.335938 28.445312 C 18.035156 28.445312 17.671875 28.457031 17.382812 28.433594 C 17.144531 28.351562 16.9375 28.449219 16.65625 28.449219 L 13.945312 28.449219 C 12.652344 28.449219 11.519531 28.636719 11.210938 27.046875 C 11.164062 27.042969 10.617188 26.984375 10.621094 26.984375 C 9.957031 27.148438 9.148438 27.222656 8.503906 26.933594 C 8.390625 27.554688 8.421875 27.902344 7.914062 28.402344 C 7.476562 28.835938 6.882812 28.78125 6.316406 28.769531 C 5.589844 28.753906 4.972656 28.917969 4.433594 28.320312 C 3.917969 27.746094 4.03125 27.242188 4.140625 26.558594 C 4.183594 26.273438 4.230469 25.984375 4.277344 25.699219 C 4.324219 25.414062 4.355469 25.140625 4.398438 24.859375 L 4.695312 22.949219 C 4.75 22.582031 4.804688 22.242188 4.90625 21.882812 C 4.929688 21.792969 4.898438 21.476562 4.910156 21.359375 C 4.933594 21.136719 4.96875 20.914062 5.007812 20.691406 C 5.128906 19.988281 5.125 19.777344 5.652344 19.292969 L 5.601562 19.191406 C 5.5 18.976562 5.492188 18.78125 5.511719 18.542969 C 5.617188 17.203125 5.875 15.882812 6.023438 14.546875 C 6.09375 13.929688 6.167969 13.3125 6.269531 12.699219 C 6.308594 12.460938 6.332031 12.210938 6.410156 11.984375 C 5.769531 11.441406 5.464844 11.109375 5.234375 10.25 C 5.15625 9.953125 5.144531 9.230469 5.179688 8.917969 C 5.242188 8.464844 5.332031 8.015625 5.414062 7.566406 C 5.589844 6.5625 5.636719 5.558594 6.179688 4.664062 C 6.683594 3.835938 7.429688 3.328125 8.363281 3.109375 C 8.824219 2.96875 9.246094 2.988281 9.710938 2.957031 C 10.40625 2.910156 11.078125 2.976562 11.742188 3.207031 C 12.160156 3.347656 12.359375 3.542969 12.714844 3.757812 L 12.730469 3.765625 C 12.824219 3.507812 12.894531 3.304688 13.078125 3.097656 C 13.335938 2.804688 13.699219 2.628906 14.085938 2.601562 Z M 16.675781 13 C 17.480469 12.75 18.433594 12.847656 19.183594 13.238281 C 19.210938 13.246094 19.214844 13.257812 19.238281 13.238281 C 19.640625 12.9375 20.109375 12.90625 20.597656 12.945312 C 20.785156 12.957031 21.011719 12.9375 21.203125 12.949219 C 21.335938 12.957031 21.488281 12.984375 21.621094 12.988281 C 21.703125 12.992188 21.910156 12.898438 22.003906 12.894531 C 22.46875 12.867188 22.972656 12.84375 23.425781 12.96875 C 23.542969 13.003906 23.671875 13.039062 23.777344 13.089844 C 23.859375 12.871094 23.855469 12.667969 23.886719 12.441406 C 23.90625 12.324219 23.933594 12.222656 23.96875 12.109375 C 22.960938 12.414062 21.683594 12.339844 20.726562 11.886719 C 20.589844 11.820312 20.199219 11.488281 20.132812 11.464844 C 19.082031 12.402344 17.175781 12.476562 15.914062 12 C 15.84375 11.972656 15.566406 11.824219 15.53125 11.820312 C 15.503906 11.882812 15.570312 12.015625 15.597656 12.097656 C 15.695312 12.382812 15.617188 12.636719 15.640625 12.910156 L 15.652344 12.925781 C 16.003906 12.960938 16.324219 12.902344 16.675781 13 Z M 18.175781 21.070312 C 17.980469 20.714844 17.867188 20.511719 17.882812 20.089844 C 17.546875 20.097656 17.253906 20.105469 16.921875 20.023438 C 16.792969 19.992188 16.566406 19.84375 16.5 19.839844 C 15.960938 20.160156 15.589844 20.082031 14.996094 20.074219 C 14.554688 20.070312 14.371094 20.140625 13.945312 19.9375 C 13.816406 19.964844 13.660156 20.042969 13.550781 20.058594 C 13.1875 20.101562 12.726562 20.101562 12.363281 20.074219 L 12.375 20.085938 C 12.464844 20.167969 12.582031 20.242188 12.679688 20.324219 C 12.996094 20.585938 13.117188 20.761719 13.339844 21.089844 L 14.035156 21.089844 L 16.082031 21.09375 C 16.558594 21.09375 17.054688 21.042969 17.507812 21.195312 C 17.800781 21.113281 17.867188 21.089844 18.175781 21.070312 Z M 10.613281 12.90625 C 10.953125 13.003906 11.125 13.058594 11.449219 13.195312 C 11.488281 12.917969 11.535156 12.644531 11.582031 12.371094 C 11.597656 12.289062 11.648438 12.050781 11.644531 11.980469 L 11.636719 11.96875 C 11.105469 12.257812 10.925781 12.34375 10.320312 12.492188 C 10.3125 12.632812 10.308594 12.742188 10.3125 12.886719 C 10.398438 12.882812 10.535156 12.878906 10.613281 12.90625 Z M 10.613281 12.90625 "/>
<path style=" stroke:none;fill-rule:nonzero;fill:rgb(99.607843%,99.607843%,99.607843%);fill-opacity:1;" d="M 13.328125 5.546875 C 13.285156 5.449219 13.234375 5.292969 13.238281 5.1875 C 13.25 4.898438 13.390625 4.074219 13.484375 3.835938 C 13.523438 3.730469 13.585938 3.632812 13.664062 3.554688 C 13.753906 3.460938 13.867188 3.398438 13.988281 3.363281 C 14.296875 3.28125 14.9375 3.339844 15.257812 3.328125 C 16.199219 3.300781 16.234375 4.003906 16.0625 4.710938 C 15.964844 5.101562 16.039062 5.402344 15.714844 5.71875 C 15.847656 5.988281 15.824219 6.183594 15.78125 6.472656 C 16.644531 5.507812 18.171875 5.332031 19.367188 5.699219 C 19.980469 5.890625 20.351562 6.277344 20.628906 6.84375 C 21.179688 6.046875 21.742188 5.699219 22.710938 5.566406 C 24.039062 5.386719 25.539062 5.777344 25.710938 7.316406 C 25.839844 8.445312 25.175781 8.40625 24.324219 8.484375 L 24.316406 8.535156 C 24.511719 8.554688 24.847656 8.585938 25.027344 8.640625 C 25.214844 8.691406 25.375 8.820312 25.460938 8.996094 C 25.835938 9.722656 24.890625 10.921875 24.234375 11.214844 C 23.355469 11.609375 22.347656 11.679688 21.425781 11.375 C 20.832031 11.179688 20.480469 10.8125 20.214844 10.269531 C 19.46875 11.507812 17.855469 11.753906 16.542969 11.4375 C 15.847656 11.269531 15.457031 10.910156 15.101562 10.304688 C 15.089844 10.40625 15.078125 10.503906 15.0625 10.601562 C 14.96875 11.230469 14.761719 11.527344 14.078125 11.519531 C 13.828125 11.519531 13.484375 11.515625 13.242188 11.519531 C 12 11.546875 12.132812 10.84375 12.328125 9.976562 C 11.707031 11.375 10.726562 11.816406 9.253906 11.859375 C 9.324219 11.921875 9.386719 11.976562 9.445312 12.054688 C 9.515625 12.152344 9.566406 12.261719 9.585938 12.382812 C 9.625 12.636719 9.496094 13.34375 9.453125 13.628906 C 10.554688 13.480469 11.582031 13.746094 11.894531 14.9375 C 12.015625 14.507812 11.941406 14.28125 12.242188 13.898438 C 12.050781 13.429688 12.269531 12.832031 12.328125 12.34375 C 12.363281 12.082031 12.722656 11.765625 12.992188 11.773438 C 13.359375 11.785156 14.105469 11.699219 14.441406 11.808594 C 14.617188 11.863281 14.761719 11.988281 14.847656 12.15625 C 14.96875 12.398438 14.933594 12.65625 14.886719 12.914062 C 14.835938 13.222656 14.808594 13.523438 14.707031 13.824219 C 15.058594 13.636719 15.273438 13.664062 15.664062 13.667969 C 16.023438 13.671875 16.289062 13.621094 16.621094 13.789062 C 17.617188 13.410156 18.753906 13.5 19.363281 14.464844 C 19.386719 14.328125 19.410156 14.195312 19.476562 14.070312 C 19.5625 13.894531 19.722656 13.761719 19.914062 13.707031 C 20.132812 13.640625 21.011719 13.667969 21.292969 13.6875 C 21.375 13.691406 21.480469 13.746094 21.554688 13.789062 C 22.113281 13.554688 22.738281 13.519531 23.320312 13.695312 C 23.746094 13.824219 24.125 14.097656 24.335938 14.496094 C 24.386719 14.226562 24.40625 14.128906 24.566406 13.90625 L 24.542969 13.84375 C 24.527344 13.800781 24.496094 13.71875 24.492188 13.667969 C 24.472656 13.261719 24.570312 12.742188 24.652344 12.34375 C 24.78125 11.679688 25.519531 11.753906 26.023438 11.761719 C 26.113281 11.765625 26.230469 11.769531 26.320312 11.761719 C 26.761719 11.734375 27.15625 11.921875 27.214844 12.398438 C 27.199219 12.878906 27.152344 13.679688 26.847656 14.066406 C 26.941406 14.277344 26.941406 14.40625 26.917969 14.625 C 26.890625 14.882812 26.855469 15.140625 26.820312 15.398438 L 26.625 16.8125 C 26.574219 17.226562 26.519531 17.640625 26.464844 18.050781 C 26.433594 18.269531 26.410156 18.484375 26.367188 18.703125 C 26.210938 19.507812 25.425781 19.335938 24.820312 19.347656 C 24.542969 19.351562 24.289062 19.371094 24.054688 19.183594 C 23.902344 19.0625 23.808594 18.882812 23.789062 18.6875 C 23.058594 19.363281 22.269531 19.570312 21.300781 19.320312 C 21.242188 19.816406 21.25 20.769531 20.601562 20.847656 C 20.242188 20.890625 19.667969 20.898438 19.304688 20.863281 C 18.402344 20.777344 18.625 19.917969 18.707031 19.316406 C 18.355469 19.371094 18.027344 19.332031 17.679688 19.347656 C 17.1875 19.371094 16.695312 19.269531 16.652344 18.671875 C 16.632812 18.402344 16.707031 18.082031 16.738281 17.808594 C 16.808594 17.183594 16.925781 16.558594 16.972656 15.933594 C 16.703125 16.152344 16.726562 16.414062 16.6875 16.734375 L 16.519531 18 C 16.429688 18.703125 16.429688 19.414062 15.472656 19.347656 C 14.839844 19.300781 14.359375 19.535156 13.917969 18.96875 C 13.820312 19.085938 13.652344 19.261719 13.503906 19.296875 C 13.046875 19.398438 12.546875 19.332031 12.078125 19.347656 C 11.773438 19.359375 11.605469 19.28125 11.398438 19.0625 C 11.382812 19.078125 11.371094 19.089844 11.355469 19.105469 C 11.210938 19.238281 10.96875 19.367188 10.769531 19.347656 C 10.300781 19.304688 9.515625 19.492188 9.175781 19.097656 C 8.894531 18.777344 9.054688 18.253906 9.089844 17.875 C 9.152344 17.230469 9.289062 16.574219 9.332031 15.933594 C 9.054688 16.175781 9.109375 16.3125 9.0625 16.664062 C 9.011719 17.015625 8.964844 17.367188 8.917969 17.714844 C 8.792969 18.722656 8.875 19.449219 7.605469 19.347656 C 7.289062 19.324219 6.933594 19.410156 6.628906 19.269531 C 6.304688 19.121094 6.191406 18.835938 6.226562 18.5 C 6.261719 18.152344 6.3125 17.804688 6.359375 17.457031 L 6.648438 15.3125 L 6.902344 13.414062 C 6.945312 13.09375 6.984375 12.773438 7.035156 12.453125 C 7.101562 12.050781 7.332031 11.875 7.699219 11.753906 C 6.59375 11.433594 5.910156 10.730469 5.875 9.527344 C 5.859375 8.945312 6.019531 8.292969 6.113281 7.714844 C 6.328125 6.390625 6.429688 4.832031 7.761719 4.109375 C 8.75 3.574219 10.238281 3.5625 11.3125 3.816406 C 12.453125 4.089844 13.113281 5.253906 12.898438 6.371094 C 12.855469 6.589844 12.628906 6.769531 12.441406 6.871094 C 12.691406 7.113281 12.71875 7.203125 12.78125 7.539062 C 12.851562 7.082031 12.972656 6.613281 13.050781 6.15625 C 13.089844 5.902344 13.164062 5.742188 13.328125 5.546875 Z M 13.328125 5.546875 "/>
<path style=" stroke:none;fill-rule:nonzero;fill:rgb(68.235296%,47.058824%,34.117648%);fill-opacity:1;" d="M 24.144531 8.484375 L 24.324219 8.484375 L 24.316406 8.535156 C 24.25 8.527344 24.203125 8.523438 24.136719 8.519531 Z M 24.144531 8.484375 "/>
<path style=" stroke:none;fill-rule:nonzero;fill:rgb(79.215688%,74.509805%,70.980394%);fill-opacity:1;" d="M 24.136719 8.519531 L 24.085938 8.507812 L 24.078125 8.492188 L 24.144531 8.484375 Z M 24.136719 8.519531 "/>
<path style=" stroke:none;fill-rule:nonzero;fill:rgb(0%,0%,0%);fill-opacity:1;" d="M 9.539062 4.289062 C 9.976562 4.242188 10.484375 4.273438 10.914062 4.355469 C 11.359375 4.441406 11.808594 4.644531 12.0625 5.035156 C 12.25 5.316406 12.390625 5.839844 12.316406 6.171875 C 12.308594 6.210938 12.296875 6.222656 12.261719 6.242188 C 12.140625 6.3125 11.003906 6.425781 10.875 6.386719 C 10.828125 6.371094 10.730469 5.96875 10.675781 5.878906 C 10.578125 5.726562 10.40625 5.644531 10.234375 5.605469 C 9.855469 5.507812 9.257812 5.546875 8.914062 5.761719 C 8.644531 5.925781 8.515625 6.207031 8.449219 6.503906 C 8.351562 6.9375 8.300781 7.390625 8.230469 7.832031 C 8.164062 8.238281 8.03125 8.820312 8.039062 9.21875 C 8.042969 9.359375 8.074219 9.492188 8.152344 9.609375 C 8.277344 9.796875 8.488281 9.878906 8.699219 9.917969 C 9.125 9.992188 9.699219 9.988281 10.0625 9.726562 C 10.402344 9.480469 10.460938 8.96875 10.523438 8.585938 C 10.285156 8.578125 9.46875 8.609375 9.316406 8.554688 C 9.199219 8.425781 9.371094 7.582031 9.457031 7.417969 C 9.5 7.335938 9.964844 7.363281 10.070312 7.363281 C 10.320312 7.363281 11.996094 7.320312 12.09375 7.40625 C 12.121094 7.429688 12.136719 7.492188 12.136719 7.53125 C 12.160156 7.746094 12.082031 8.007812 12.046875 8.222656 C 11.925781 8.984375 11.867188 9.820312 11.351562 10.433594 C 10.894531 10.976562 10.257812 11.167969 9.570312 11.222656 C 8.765625 11.285156 7.644531 11.285156 7.007812 10.730469 C 6.671875 10.441406 6.515625 10.003906 6.488281 9.570312 C 6.453125 9.046875 6.621094 8.359375 6.707031 7.828125 C 6.808594 7.210938 6.878906 6.480469 7.082031 5.886719 C 7.1875 5.578125 7.34375 5.28125 7.566406 5.035156 C 8.070312 4.472656 8.820312 4.332031 9.539062 4.289062 Z M 9.539062 4.289062 "/>
<path style=" stroke:none;fill-rule:nonzero;fill:rgb(0%,0%,0%);fill-opacity:1;" d="M 22.402344 14.210938 C 22.46875 14.199219 22.65625 14.199219 22.726562 14.203125 C 23.09375 14.234375 23.476562 14.355469 23.722656 14.648438 C 24.058594 15.050781 24.09375 15.726562 24.050781 16.226562 C 23.980469 16.992188 23.808594 17.875 23.195312 18.398438 C 22.820312 18.714844 22.289062 18.84375 21.808594 18.792969 C 21.363281 18.746094 21.109375 18.578125 20.832031 18.242188 C 20.792969 18.429688 20.757812 18.726562 20.734375 18.925781 C 20.691406 19.238281 20.644531 19.566406 20.609375 19.875 C 20.597656 19.976562 20.59375 20.246094 20.453125 20.246094 C 20.214844 20.242188 19.410156 20.3125 19.234375 20.199219 C 19.222656 19.929688 19.3125 19.421875 19.351562 19.132812 L 19.597656 17.328125 L 19.867188 15.332031 C 19.890625 15.144531 19.964844 14.507812 20.023438 14.351562 C 20.164062 14.230469 20.753906 14.3125 20.96875 14.285156 C 21.363281 14.238281 21.289062 14.503906 21.257812 14.753906 C 21.589844 14.394531 21.925781 14.257812 22.402344 14.210938 Z M 22.402344 14.210938 "/>
<path style=" stroke:none;fill-rule:nonzero;fill:rgb(99.607843%,99.607843%,99.607843%);fill-opacity:1;" d="M 21.914062 15.332031 C 22.308594 15.304688 22.640625 15.402344 22.707031 15.859375 C 22.769531 16.308594 22.679688 16.9375 22.421875 17.324219 C 22.28125 17.53125 22.105469 17.601562 21.867188 17.640625 C 20.996094 17.648438 20.945312 16.96875 21.078125 16.292969 C 21.179688 15.800781 21.382812 15.429688 21.914062 15.332031 Z M 21.914062 15.332031 "/>
<path style=" stroke:none;fill-rule:nonzero;fill:rgb(0%,0%,0%);fill-opacity:1;" d="M 18.066406 6.148438 C 19.855469 6.089844 20.414062 6.988281 20.125 8.664062 C 19.863281 10.179688 19.257812 10.839844 17.703125 10.933594 C 15.828125 10.941406 15.285156 10.164062 15.621094 8.335938 C 15.894531 6.867188 16.550781 6.21875 18.066406 6.148438 Z M 18.066406 6.148438 "/>
<path style=" stroke:none;fill-rule:nonzero;fill:rgb(99.607843%,99.607843%,99.607843%);fill-opacity:1;" d="M 17.890625 7.285156 C 18.503906 7.222656 18.921875 7.484375 18.847656 8.15625 C 18.773438 8.832031 18.730469 9.679688 17.878906 9.765625 C 16.929688 9.863281 16.792969 9.335938 16.929688 8.523438 C 17.035156 7.886719 17.152344 7.382812 17.890625 7.285156 Z M 17.890625 7.285156 "/>
<path style=" stroke:none;fill-rule:nonzero;fill:rgb(0%,0%,0%);fill-opacity:1;" d="M 7.800781 12.382812 C 8.011719 12.378906 8.800781 12.359375 8.9375 12.417969 C 9.023438 12.539062 8.914062 13.117188 8.894531 13.28125 L 8.695312 14.730469 C 8.9375 14.523438 9.167969 14.34375 9.476562 14.265625 C 10.171875 14.085938 11.097656 14.238281 11.289062 15.046875 C 11.332031 15.238281 11.359375 15.484375 11.339844 15.679688 C 11.246094 16.625 11.09375 17.566406 10.976562 18.507812 C 10.96875 18.566406 10.949219 18.621094 10.917969 18.667969 C 10.839844 18.734375 10.546875 18.742188 10.441406 18.726562 C 10.25 18.699219 9.742188 18.792969 9.628906 18.652344 C 9.605469 18.5 9.679688 18.054688 9.703125 17.886719 L 9.855469 16.75 C 9.902344 16.402344 10.058594 15.78125 9.832031 15.484375 C 9.75 15.375 9.566406 15.320312 9.429688 15.320312 C 8.464844 15.328125 8.492188 16.332031 8.390625 17.027344 C 8.335938 17.417969 8.289062 17.8125 8.230469 18.203125 C 8.210938 18.316406 8.226562 18.734375 8.035156 18.71875 C 7.847656 18.707031 6.9375 18.792969 6.84375 18.65625 C 6.820312 18.464844 6.894531 18.03125 6.925781 17.820312 L 7.058594 16.808594 C 7.238281 15.398438 7.425781 13.992188 7.628906 12.585938 C 7.644531 12.457031 7.671875 12.410156 7.800781 12.382812 Z M 7.800781 12.382812 "/>
<path style=" stroke:none;fill-rule:nonzero;fill:rgb(0%,0%,0%);fill-opacity:1;" d="M 17.433594 14.210938 C 18.332031 14.109375 19.050781 14.566406 18.984375 15.546875 C 18.917969 16.519531 18.71875 17.492188 18.625 18.464844 C 18.585938 18.847656 18.300781 18.695312 18.023438 18.726562 C 17.117188 18.722656 17.226562 18.828125 17.324219 18.042969 L 17.519531 16.5625 C 17.554688 16.300781 17.617188 15.96875 17.582031 15.714844 C 17.519531 15.265625 16.941406 15.25 16.625 15.425781 C 16.464844 15.511719 16.386719 15.609375 16.292969 15.75 C 16.128906 16.0625 16.101562 16.480469 16.054688 16.828125 C 15.996094 17.253906 15.941406 17.683594 15.886719 18.113281 C 15.871094 18.242188 15.859375 18.722656 15.6875 18.71875 C 15.453125 18.710938 14.644531 18.78125 14.476562 18.671875 C 14.453125 18.441406 14.988281 14.546875 15.054688 14.355469 C 15.210938 14.230469 15.964844 14.300781 16.1875 14.292969 C 16.421875 14.289062 16.324219 14.617188 16.304688 14.757812 C 16.644531 14.429688 16.964844 14.261719 17.433594 14.210938 Z M 17.433594 14.210938 "/>
<path style=" stroke:none;fill-rule:nonzero;fill:rgb(0%,0%,0%);fill-opacity:1;" d="M 23.132812 6.148438 C 24.121094 6.113281 25.023438 6.375 25.121094 7.480469 C 25.128906 7.578125 25.136719 7.675781 25.070312 7.753906 C 24.929688 7.816406 24.058594 7.902344 23.894531 7.882812 C 23.777344 7.867188 23.71875 7.546875 23.640625 7.445312 C 23.550781 7.335938 23.414062 7.300781 23.28125 7.285156 C 23.007812 7.257812 22.707031 7.3125 22.492188 7.496094 C 22.144531 7.796875 22.066406 8.457031 22.03125 8.898438 C 22.011719 9.128906 22.011719 9.398438 22.171875 9.582031 C 22.296875 9.722656 22.480469 9.761719 22.660156 9.773438 C 23.027344 9.800781 23.378906 9.722656 23.554688 9.363281 C 23.59375 9.292969 23.632812 9.171875 23.699219 9.121094 C 23.796875 9.042969 24.542969 9.1875 24.710938 9.207031 C 24.785156 9.21875 24.957031 9.234375 24.9375 9.347656 C 24.734375 10.390625 23.90625 10.875 22.910156 10.925781 C 21.851562 11.003906 20.679688 10.710938 20.664062 9.4375 C 20.65625 8.597656 20.820312 7.484375 21.394531 6.832031 C 21.84375 6.316406 22.484375 6.183594 23.132812 6.148438 Z M 23.132812 6.148438 "/>
<path style=" stroke:none;fill-rule:nonzero;fill:rgb(0%,0%,0%);fill-opacity:1;" d="M 13.867188 5.960938 C 14.082031 5.957031 14.960938 5.921875 15.117188 5.984375 C 15.152344 5.996094 15.179688 6.027344 15.191406 6.0625 C 15.214844 6.15625 14.519531 10.21875 14.4375 10.617188 C 14.421875 10.699219 14.398438 10.773438 14.367188 10.851562 C 14.3125 10.910156 14.238281 10.902344 14.160156 10.902344 C 13.761719 10.902344 13.253906 10.933594 12.855469 10.871094 C 12.78125 10.859375 12.8125 10.652344 12.824219 10.585938 C 12.949219 9.929688 13.074219 9.277344 13.195312 8.621094 L 13.53125 6.847656 C 13.578125 6.617188 13.621094 6.386719 13.664062 6.152344 C 13.691406 6.023438 13.746094 5.984375 13.867188 5.960938 Z M 13.867188 5.960938 "/>
<path style=" stroke:none;fill-rule:nonzero;fill:rgb(0%,0%,0%);fill-opacity:1;" d="M 12.792969 14.285156 C 12.992188 14.28125 13.867188 14.261719 14.003906 14.324219 C 14.09375 14.425781 14.007812 14.765625 13.984375 14.898438 L 13.851562 15.738281 L 13.570312 17.558594 C 13.523438 17.871094 13.472656 18.1875 13.421875 18.5 C 13.386719 18.714844 13.351562 18.71875 13.144531 18.726562 C 12.785156 18.722656 12.425781 18.730469 12.066406 18.726562 C 12.003906 18.722656 11.917969 18.714844 11.878906 18.667969 C 11.867188 18.597656 11.867188 18.519531 11.878906 18.453125 C 12.113281 17.128906 12.371094 15.8125 12.601562 14.488281 C 12.625 14.359375 12.664062 14.3125 12.792969 14.285156 Z M 12.792969 14.285156 "/>
<path style=" stroke:none;fill-rule:nonzero;fill:rgb(0%,0%,0%);fill-opacity:1;" d="M 25.175781 14.289062 C 25.449219 14.285156 25.726562 14.285156 26 14.285156 C 26.25 14.257812 26.367188 14.34375 26.304688 14.609375 C 26.171875 15.160156 25.886719 18.453125 25.710938 18.695312 C 25.640625 18.726562 25.628906 18.722656 25.550781 18.730469 C 25.238281 18.722656 24.925781 18.734375 24.613281 18.726562 C 24.550781 18.726562 24.464844 18.714844 24.425781 18.660156 C 24.398438 18.480469 24.472656 18.070312 24.5 17.871094 L 24.621094 16.96875 L 24.851562 15.265625 C 24.886719 15.003906 24.921875 14.746094 24.957031 14.488281 C 24.960938 14.445312 24.976562 14.390625 25.003906 14.355469 C 25.054688 14.296875 25.105469 14.296875 25.175781 14.289062 Z M 25.175781 14.289062 "/>
<path style=" stroke:none;fill-rule:nonzero;fill:rgb(0%,0%,0%);fill-opacity:1;" d="M 14.136719 3.957031 C 14.292969 3.945312 15.410156 3.933594 15.496094 3.980469 C 15.605469 4.15625 15.390625 4.867188 15.371094 5.101562 C 15.363281 5.179688 15.324219 5.234375 15.261719 5.28125 C 14.898438 5.316406 14.488281 5.273438 14.117188 5.289062 C 13.683594 5.3125 13.878906 4.96875 13.925781 4.691406 C 13.957031 4.492188 13.988281 4.082031 14.136719 3.957031 Z M 14.136719 3.957031 "/>
<path style=" stroke:none;fill-rule:nonzero;fill:rgb(0%,0%,0%);fill-opacity:1;" d="M 13.125 12.382812 C 13.328125 12.382812 14.136719 12.355469 14.269531 12.417969 C 14.285156 12.4375 14.292969 12.457031 14.296875 12.480469 C 14.320312 12.609375 14.207031 13.496094 14.132812 13.578125 C 14.085938 13.632812 14.039062 13.636719 13.972656 13.644531 C 13.640625 13.640625 13.304688 13.648438 12.972656 13.640625 C 12.898438 13.640625 12.820312 13.628906 12.773438 13.566406 C 12.75 13.410156 12.871094 12.613281 12.953125 12.441406 C 12.972656 12.394531 13.070312 12.386719 13.125 12.382812 Z M 13.125 12.382812 "/>
<path style=" stroke:none;fill-rule:nonzero;fill:rgb(0%,0%,0%);fill-opacity:1;" d="M 25.324219 12.394531 C 25.449219 12.378906 26.492188 12.367188 26.558594 12.410156 C 26.59375 12.460938 26.617188 12.546875 26.605469 12.601562 C 26.558594 12.839844 26.542969 13.488281 26.382812 13.636719 C 26.015625 13.65625 25.625 13.640625 25.261719 13.636719 C 25.070312 13.640625 25.0625 13.460938 25.109375 13.320312 C 25.179688 13.089844 25.152344 12.539062 25.324219 12.394531 Z M 25.324219 12.394531 "/>
<path style=" stroke:none;fill-rule:nonzero;fill:rgb(98.431373%,40.000001%,14.901961%);fill-opacity:1;" d="M 23.105469 7.894531 C 23.136719 7.894531 23.175781 7.886719 23.183594 7.921875 C 23.265625 8.226562 23.359375 8.320312 23.636719 8.472656 C 23.285156 8.582031 23.160156 8.710938 23.035156 9.058594 C 22.972656 9.203125 22.773438 9.171875 22.644531 9.167969 C 22.625 8.894531 22.707031 8.222656 22.875 7.980469 C 22.921875 7.914062 23.027344 7.90625 23.105469 7.894531 Z M 23.105469 7.894531 "/>
<path style=" stroke:none;fill-rule:nonzero;fill:rgb(98.431373%,40.000001%,14.901961%);fill-opacity:1;" d="M 9.617188 6.195312 C 9.800781 6.183594 10 6.171875 10.175781 6.226562 C 10.207031 6.457031 10.222656 6.542969 10.335938 6.746094 C 10.050781 6.75 9.761719 6.746094 9.472656 6.75 C 9.226562 6.804688 9.171875 6.851562 8.976562 7.011719 C 9.046875 6.507812 9.058594 6.253906 9.617188 6.195312 Z M 9.617188 6.195312 "/>
<path style=" stroke:none;fill-rule:nonzero;fill:rgb(98.431373%,40.000001%,14.901961%);fill-opacity:1;" d="M 8.691406 8.820312 C 8.925781 9.027344 8.96875 9.175781 9.386719 9.207031 C 9.476562 9.210938 9.574219 9.199219 9.664062 9.21875 L 9.667969 9.238281 L 9.613281 9.269531 C 9.425781 9.328125 8.835938 9.390625 8.6875 9.261719 C 8.636719 9.148438 8.675781 8.949219 8.691406 8.820312 Z M 8.691406 8.820312 "/>
<path style=" stroke:none;fill-rule:nonzero;fill:rgb(99.607843%,99.607843%,99.607843%);fill-opacity:1;" d="M 5.753906 22.035156 C 5.640625 21.855469 5.585938 21.585938 5.632812 21.378906 C 5.742188 20.917969 5.6875 20.195312 6.097656 19.886719 C 6.195312 19.816406 6.308594 19.769531 6.429688 19.75 C 6.6875 19.707031 7.621094 19.746094 7.921875 19.746094 C 8.085938 19.742188 8.347656 19.898438 8.457031 20.050781 C 8.675781 20.375 8.5625 20.835938 8.496094 21.199219 C 8.84375 20.890625 9.042969 20.738281 9.503906 20.589844 C 10.230469 20.359375 11.226562 20.371094 11.917969 20.71875 C 12.425781 20.980469 12.703125 21.367188 12.875 21.902344 C 12.953125 21.875 13.035156 21.855469 13.117188 21.851562 C 13.351562 21.828125 13.710938 21.839844 13.953125 21.839844 L 15.414062 21.839844 L 16.472656 21.835938 C 16.898438 21.835938 17.164062 21.78125 17.511719 22.070312 C 17.601562 21.996094 17.671875 21.9375 17.785156 21.894531 C 17.855469 21.867188 17.929688 21.847656 18.003906 21.84375 C 18.210938 21.832031 18.515625 21.839844 18.726562 21.839844 L 20.015625 21.839844 L 21.234375 21.835938 C 21.582031 21.835938 21.898438 21.796875 22.222656 21.9375 C 22.414062 21.132812 22.898438 20.589844 23.691406 20.320312 C 24.421875 20.070312 25.4375 20.066406 26.140625 20.410156 C 26.589844 20.625 26.933594 21.011719 27.089844 21.480469 C 27.261719 21.976562 27.210938 22.398438 27.175781 22.902344 L 27.089844 24.121094 C 27.078125 24.34375 27.070312 24.5625 27.0625 24.785156 C 27.050781 25.050781 27.105469 25.382812 26.964844 25.628906 C 26.667969 26.128906 26.085938 26.011719 25.597656 26.023438 C 25.316406 26.03125 25.148438 26.003906 24.902344 25.871094 C 24.097656 26.230469 23.199219 26.203125 22.480469 25.667969 L 22.417969 25.742188 C 22.535156 26.105469 22.457031 26.917969 22.320312 27.28125 C 22.105469 27.84375 21.234375 27.703125 20.730469 27.703125 L 18.09375 27.703125 C 17.734375 27.707031 17.507812 27.75 17.183594 27.574219 C 16.847656 27.746094 16.675781 27.703125 16.3125 27.703125 L 15.363281 27.703125 C 14.507812 27.703125 13.648438 27.703125 12.792969 27.703125 C 12.230469 27.703125 11.910156 27.335938 11.976562 26.785156 C 11.996094 26.632812 12.011719 26.464844 12.019531 26.3125 C 11.496094 26.3125 11.109375 26.378906 10.636719 26.164062 C 9.984375 26.460938 9.203125 26.484375 8.550781 26.164062 C 8.269531 26.027344 8.121094 25.875 7.914062 25.648438 C 7.875 26 7.832031 26.355469 7.789062 26.707031 C 7.695312 27.429688 7.664062 28.121094 6.710938 28.050781 C 6.328125 28.027344 5.71875 28.109375 5.359375 28.03125 C 5.234375 28.003906 5.113281 27.941406 5.015625 27.855469 C 4.640625 27.515625 4.8125 26.96875 4.882812 26.523438 L 5.109375 25.03125 L 5.359375 23.367188 C 5.40625 23.046875 5.449219 22.703125 5.527344 22.382812 C 5.558594 22.25 5.664062 22.136719 5.753906 22.035156 Z M 5.753906 22.035156 "/>
<path style=" stroke:none;fill-rule:nonzero;fill:rgb(98.431373%,40.000001%,14.901961%);fill-opacity:1;" d="M 20.890625 25.300781 C 21.203125 25.015625 21.503906 24.726562 21.820312 24.445312 C 21.867188 24.84375 21.949219 24.949219 22.117188 25.289062 C 22.105469 25.324219 22.105469 25.316406 22.109375 25.351562 L 22.078125 25.382812 C 21.777344 25.25 21.242188 25.300781 20.890625 25.300781 Z M 20.890625 25.300781 "/>
<path style=" stroke:none;fill-rule:nonzero;fill:rgb(80.784315%,35.294119%,8.235294%);fill-opacity:1;" d="M 22.078125 25.382812 L 22.109375 25.351562 C 22.105469 25.316406 22.105469 25.324219 22.117188 25.289062 L 22.246094 25.457031 L 22.214844 25.472656 C 22.175781 25.441406 22.121094 25.410156 22.078125 25.382812 Z M 22.078125 25.382812 "/>
<path style=" stroke:none;fill-rule:nonzero;fill:rgb(80.784315%,35.294119%,8.235294%);fill-opacity:1;" d="M 22.34375 25.554688 C 22.386719 25.589844 22.433594 25.632812 22.480469 25.667969 L 22.417969 25.742188 C 22.386719 25.671875 22.367188 25.644531 22.324219 25.582031 Z M 22.34375 25.554688 "/>
<path style=" stroke:none;fill-rule:nonzero;fill:rgb(68.235296%,47.058824%,34.117648%);fill-opacity:1;" d="M 22.246094 25.457031 L 22.34375 25.554688 L 22.324219 25.582031 L 22.214844 25.472656 Z M 22.246094 25.457031 "/>
<path style=" stroke:none;fill-rule:nonzero;fill:rgb(0%,0%,0%);fill-opacity:1;" d="M 24.664062 20.773438 C 25.339844 20.726562 26.195312 20.902344 26.480469 21.597656 C 26.660156 22.027344 26.585938 22.488281 26.558594 22.9375 C 26.511719 23.59375 26.4375 24.246094 26.441406 24.902344 C 26.441406 25.027344 26.457031 25.21875 26.414062 25.332031 C 26.273438 25.464844 25.617188 25.386719 25.398438 25.394531 C 25.160156 25.40625 25.152344 25.078125 25.136719 24.90625 C 25.03125 25.027344 24.910156 25.136719 24.777344 25.226562 C 24.113281 25.664062 23.042969 25.570312 22.585938 24.867188 C 22.375 24.476562 22.371094 23.949219 22.535156 23.539062 C 22.984375 22.445312 24.382812 22.707031 25.261719 22.339844 C 25.273438 21.695312 24.75 21.578125 24.246094 21.875 C 24.167969 21.917969 24.082031 22.175781 23.984375 22.183594 C 23.761719 22.207031 23.042969 22.210938 22.871094 22.121094 C 22.816406 22.042969 22.867188 21.914062 22.894531 21.835938 C 23.015625 21.472656 23.242188 21.226562 23.570312 21.042969 C 23.925781 20.84375 24.269531 20.796875 24.664062 20.773438 Z M 24.664062 20.773438 "/>
<path style=" stroke:none;fill-rule:nonzero;fill:rgb(99.607843%,99.607843%,99.607843%);fill-opacity:1;" d="M 25.128906 23.265625 L 25.160156 23.265625 C 25.195312 23.34375 25.128906 23.65625 25.121094 23.761719 C 25.078125 24.324219 24.371094 24.652344 23.898438 24.375 C 23.835938 24.3125 23.777344 24.257812 23.757812 24.167969 C 23.628906 23.652344 24.058594 23.480469 24.472656 23.40625 C 24.679688 23.371094 24.933594 23.320312 25.128906 23.265625 Z M 25.128906 23.265625 "/>
<path style=" stroke:none;fill-rule:nonzero;fill:rgb(0%,0%,0%);fill-opacity:1;" d="M 10.472656 21.054688 C 10.835938 21.03125 11.261719 21.089844 11.59375 21.25 C 11.898438 21.394531 12.125 21.628906 12.238281 21.949219 C 12.304688 22.140625 12.332031 22.339844 12.335938 22.539062 C 12.339844 23.15625 12.242188 23.785156 12.207031 24.402344 C 12.195312 24.601562 12.207031 25.503906 12.152344 25.601562 C 12.128906 25.644531 12.074219 25.660156 12.027344 25.671875 C 11.867188 25.707031 11.121094 25.71875 11 25.628906 C 10.886719 25.546875 10.890625 25.320312 10.875 25.1875 C 10.417969 25.722656 9.789062 25.863281 9.109375 25.714844 C 8.757812 25.636719 8.484375 25.417969 8.296875 25.117188 C 8.074219 24.660156 8.105469 24.011719 8.398438 23.59375 C 8.914062 22.84375 10.003906 22.910156 10.796875 22.699219 C 10.875 22.679688 10.953125 22.660156 11.003906 22.589844 C 11.019531 22.492188 11.003906 22.367188 10.964844 22.28125 C 10.914062 22.167969 10.824219 22.089844 10.707031 22.046875 C 10.59375 22.003906 10.46875 22 10.351562 22.015625 C 9.863281 22.074219 9.917969 22.421875 9.734375 22.476562 C 9.59375 22.519531 8.734375 22.476562 8.617188 22.410156 C 8.535156 22.207031 8.769531 21.804688 8.90625 21.648438 C 9.3125 21.199219 9.894531 21.085938 10.472656 21.054688 Z M 10.472656 21.054688 "/>
<path style=" stroke:none;fill-rule:nonzero;fill:rgb(99.607843%,99.607843%,99.607843%);fill-opacity:1;" d="M 10.882812 23.546875 L 10.90625 23.546875 C 10.933594 23.628906 10.871094 23.933594 10.863281 24.039062 C 10.8125 24.609375 10.113281 24.921875 9.632812 24.660156 C 9.457031 24.5 9.421875 24.285156 9.527344 24.070312 C 9.679688 23.75 10.105469 23.726562 10.410156 23.664062 C 10.578125 23.628906 10.71875 23.601562 10.882812 23.546875 Z M 10.882812 23.546875 "/>
<path style=" stroke:none;fill-rule:nonzero;fill:rgb(0%,0%,0%);fill-opacity:1;" d="M 18.019531 22.457031 C 18.726562 22.433594 19.546875 22.457031 20.261719 22.457031 L 21.273438 22.457031 C 21.390625 22.457031 21.847656 22.4375 21.925781 22.492188 C 22.042969 22.644531 21.910156 23 21.925781 23.191406 C 21.921875 23.261719 21.910156 23.46875 21.871094 23.515625 C 21.582031 23.882812 21.191406 24.179688 20.851562 24.507812 C 20.351562 24.984375 19.832031 25.441406 19.335938 25.917969 C 19.703125 25.921875 21.632812 25.878906 21.804688 25.953125 C 21.835938 25.964844 21.839844 25.976562 21.855469 26.007812 C 21.878906 26.070312 21.835938 26.785156 21.820312 26.886719 C 21.8125 26.929688 21.800781 26.972656 21.777344 27.007812 C 21.742188 27.066406 21.695312 27.074219 21.636719 27.085938 C 20.863281 27.105469 20.015625 27.085938 19.238281 27.085938 L 18.230469 27.089844 C 18.042969 27.089844 17.636719 27.113281 17.519531 27.042969 C 17.417969 26.984375 17.542969 26.066406 17.609375 25.984375 C 17.8125 25.734375 18.222656 25.386719 18.449219 25.175781 L 20.132812 23.621094 C 19.667969 23.617188 19.203125 23.617188 18.738281 23.621094 C 18.582031 23.621094 17.921875 23.65625 17.824219 23.550781 C 17.78125 23.375 17.84375 23.101562 17.855469 22.914062 C 17.867188 22.742188 17.84375 22.539062 18.019531 22.457031 Z M 18.019531 22.457031 "/>
<path style=" stroke:none;fill-rule:nonzero;fill:rgb(0%,0%,0%);fill-opacity:1;" d="M 13.128906 22.457031 L 13.148438 22.457031 L 15.625 22.453125 C 15.785156 22.453125 16.910156 22.425781 17.058594 22.5 C 17.136719 22.640625 17.027344 23.148438 17.03125 23.28125 C 17.042969 23.574219 16.765625 23.761719 16.582031 23.929688 L 15.878906 24.582031 C 15.585938 24.851562 15.292969 25.121094 15.003906 25.394531 C 14.824219 25.566406 14.621094 25.765625 14.425781 25.917969 L 15.964844 25.917969 C 16.148438 25.917969 16.851562 25.886719 16.960938 25.984375 C 17.003906 26.132812 16.921875 26.792969 16.894531 26.976562 C 16.886719 27.03125 16.832031 27.0625 16.78125 27.082031 C 15.945312 27.101562 15.105469 27.085938 14.265625 27.085938 C 13.792969 27.085938 13.222656 27.117188 12.761719 27.085938 C 12.714844 27.082031 12.667969 27.082031 12.628906 27.042969 C 12.589844 27.007812 12.578125 26.957031 12.578125 26.90625 C 12.578125 26.753906 12.644531 26.128906 12.707031 26 C 12.773438 25.863281 14.9375 23.890625 15.226562 23.621094 L 13.945312 23.621094 C 13.640625 23.621094 13.300781 23.640625 13 23.589844 C 12.851562 23.566406 12.957031 23.070312 12.964844 22.957031 C 12.980469 22.773438 12.945312 22.546875 13.128906 22.457031 Z M 13.128906 22.457031 "/>
<path style=" stroke:none;fill-rule:nonzero;fill:rgb(0%,0%,0%);fill-opacity:1;" d="M 6.214844 22.457031 C 6.425781 22.4375 7.472656 22.414062 7.621094 22.476562 C 7.660156 22.496094 7.679688 22.523438 7.691406 22.5625 C 7.703125 22.601562 7.699219 22.644531 7.695312 22.683594 C 7.609375 23.445312 7.488281 24.203125 7.386719 24.964844 C 7.289062 25.714844 7.210938 26.476562 7.09375 27.222656 C 7.085938 27.269531 7.082031 27.320312 7.054688 27.359375 C 7.019531 27.414062 6.972656 27.425781 6.910156 27.441406 L 6.058594 27.441406 C 5.910156 27.441406 5.457031 27.464844 5.414062 27.375 C 5.363281 27.277344 5.515625 26.445312 5.535156 26.316406 L 5.855469 24.164062 L 6.015625 23.101562 C 6.042969 22.9375 6.0625 22.757812 6.101562 22.597656 C 6.113281 22.535156 6.164062 22.496094 6.214844 22.457031 Z M 6.214844 22.457031 "/>
<path style=" stroke:none;fill-rule:nonzero;fill:rgb(0%,0%,0%);fill-opacity:1;" d="M 6.511719 20.363281 C 6.761719 20.34375 7.042969 20.363281 7.292969 20.355469 C 7.417969 20.355469 7.851562 20.335938 7.925781 20.398438 C 8.03125 20.621094 7.84375 21.300781 7.816406 21.5625 C 7.808594 21.652344 7.765625 21.699219 7.691406 21.742188 C 7.511719 21.761719 6.351562 21.777344 6.265625 21.695312 C 6.179688 21.476562 6.355469 20.785156 6.394531 20.527344 C 6.40625 20.449219 6.449219 20.40625 6.511719 20.363281 Z M 6.511719 20.363281 "/>
<path style=" stroke:none;fill-rule:nonzero;fill:rgb(98.431373%,40.000001%,14.901961%);fill-opacity:1;" d="M 17.382812 24.003906 C 17.816406 24.320312 18.0625 24.234375 18.582031 24.234375 C 18.144531 24.636719 17.710938 25.039062 17.28125 25.445312 C 16.988281 25.246094 16.652344 25.296875 16.296875 25.296875 L 16.007812 25.296875 L 16.261719 25.0625 C 16.617188 24.726562 17.042969 24.351562 17.382812 24.003906 Z M 17.382812 24.003906 "/>
<path style=" stroke:none;fill-rule:nonzero;fill:rgb(98.431373%,40.000001%,14.901961%);fill-opacity:1;" d="M 16.261719 25.0625 C 16.257812 25.128906 16.257812 25.242188 16.296875 25.296875 L 16.007812 25.296875 Z M 16.261719 25.0625 "/>
<path style=" stroke:none;fill-rule:nonzero;fill:rgb(98.431373%,40.000001%,14.901961%);fill-opacity:1;" d="M 12.84375 24.203125 C 13.050781 24.253906 13.441406 24.242188 13.671875 24.242188 L 13.242188 24.652344 C 13.09375 24.78125 12.949219 24.910156 12.804688 25.046875 C 12.8125 24.765625 12.824219 24.484375 12.84375 24.203125 Z M 12.84375 24.203125 "/>
<path style=" stroke:none;fill-rule:nonzero;fill:rgb(99.607843%,99.607843%,99.607843%);fill-opacity:1;" d="M 22.320312 20.148438 C 22.371094 20.144531 22.429688 20.136719 22.476562 20.148438 C 22.449219 20.1875 22.328125 20.285156 22.289062 20.324219 C 22.054688 20.550781 21.894531 20.8125 21.730469 21.085938 C 21.683594 21.085938 21.652344 21.089844 21.613281 21.066406 C 21.839844 20.65625 21.863281 20.675781 21.945312 20.167969 C 22.070312 20.164062 22.191406 20.160156 22.320312 20.148438 Z M 22.320312 20.148438 "/>
<path style=" stroke:none;fill-rule:nonzero;fill:rgb(0%,0%,0%);fill-opacity:0.121569;" d="M 9.46875 2.355469 C 9.511719 2.390625 9.5 2.4375 9.5 2.488281 C 9.460938 2.441406 9.46875 2.414062 9.46875 2.355469 Z M 9.46875 2.355469 "/>
<path style=" stroke:none;fill-rule:nonzero;fill:rgb(0%,0%,0%);fill-opacity:0.12549;" d="M 9.601562 2.335938 C 9.632812 2.398438 9.628906 2.367188 9.617188 2.4375 C 9.589844 2.390625 9.597656 2.402344 9.601562 2.335938 Z M 9.601562 2.335938 "/>
</g>
</svg>
